<svg width="24" height="22" viewBox="0 0 24 22" fill="none" xmlns="http://www.w3.org/2000/svg">
<path d="M10.8843 5.71999L7.78327 2.1404C7.42577 1.7279 6.77035 1.72974 6.3551 2.1459L3.80493 4.70065C3.04593 5.46057 2.82868 6.58899 3.26776 7.49374C5.89092 12.925 10.2711 17.3113 15.6987 19.9421C16.6025 20.3812 17.73 20.1639 18.489 19.404L21.063 16.8254C21.4801 16.4083 21.481 15.7492 21.0648 15.3917L17.4715 12.3072C17.0957 11.9845 16.5118 12.0267 16.135 12.4043L14.8847 13.6565C14.8207 13.7236 14.7364 13.7678 14.6448 13.7824C14.5533 13.7969 14.4594 13.7811 14.3778 13.7372C12.334 12.5602 10.6387 10.8627 9.46443 8.8174C9.42046 8.73559 9.40453 8.64161 9.4191 8.54988C9.43368 8.45815 9.47794 8.37373 9.5451 8.30957L10.7918 7.06199C11.1694 6.68249 11.2107 6.09582 10.8843 5.71907V5.71999Z" stroke="#229F17" stroke-width="2" stroke-linecap="round" stroke-linejoin="round"/>
</svg>
