<svg width="23" height="24" viewBox="0 0 23 24" fill="none" xmlns="http://www.w3.org/2000/svg">
<g clip-path="url(#clip0_76_667)">
<path d="M10.3891 2.89062C8.26001 2.89063 6.21811 3.69801 4.71261 5.13516C3.20711 6.57232 2.36133 8.52152 2.36133 10.554V10.554V11.1124C2.68634 15.3112 6.3373 18.6878 10.3891 23.0573C14.6197 18.4965 18.4169 15.0423 18.4169 10.554C18.4169 8.52152 17.5711 6.57232 16.0656 5.13516C14.5601 3.69801 12.5182 2.89063 10.3891 2.89062ZM10.3891 6.87225C11.1532 6.87225 11.9001 7.08861 12.5354 7.49396C13.1707 7.89931 13.6657 8.47543 13.9578 9.14942C14.25 9.82341 14.3262 10.565 14.1767 11.2803C14.0272 11.9956 13.6589 12.6526 13.1182 13.168C12.5775 13.6834 11.8888 14.0341 11.1393 14.1758C10.3897 14.3175 9.61297 14.2437 8.90734 13.9639C8.20171 13.684 7.59889 13.2107 7.17515 12.6037C6.75142 11.9967 6.52582 11.2834 6.52689 10.554C6.52832 9.57703 6.93587 8.64059 7.66002 7.95028C8.38417 7.25998 9.36572 6.87225 10.3891 6.87225Z" stroke="#229F17" stroke-width="2" stroke-linecap="round" stroke-linejoin="round"/>
</g>
<defs>
<clipPath id="clip0_76_667">
<rect width="22" height="24" fill="white" transform="translate(0.209961)"/>
</clipPath>
</defs>
</svg>
