<svg width="42" height="43" viewBox="0 0 42 43" fill="none" xmlns="http://www.w3.org/2000/svg">
<rect width="41" height="43" transform="translate(0.5)" fill="#EFEFEF"/>
<path d="M9.62416 11.2083H9.625L31.8333 11.2083L31.834 11.2083C32.2794 11.2077 32.7157 11.3096 33.1105 11.5022L20.7292 19.5422L8.34765 11.5021C8.74243 11.3094 9.17872 11.2076 9.62416 11.2083ZM14.7262 18.9183L14.7261 18.9184L14.7301 18.9209L20.4593 22.5939L20.7309 22.768L21.0014 22.5923L34.7177 13.6881C34.739 13.8302 34.75 13.9761 34.75 14.125V29.5C34.75 30.2735 34.4427 31.0154 33.8957 31.5624C33.3487 32.1094 32.6069 32.4167 31.8333 32.4167H9.625C8.85145 32.4167 8.10959 32.1094 7.56261 31.5624C7.01562 31.0154 6.70833 30.2735 6.70833 29.5V14.125V14.1247C6.70825 13.9793 6.71907 13.8344 6.74058 13.6911L14.7262 18.9183ZM31.8333 8.5H9.625C8.13316 8.5 6.70242 9.09263 5.64752 10.1475C4.59263 11.2024 4 12.6332 4 14.125V29.5C4 30.9918 4.59263 32.4226 5.64752 33.4775C6.70242 34.5324 8.13316 35.125 9.625 35.125H31.8333C33.3252 35.125 34.7559 34.5324 35.8108 33.4775C36.8657 32.4226 37.4583 30.9918 37.4583 29.5V14.125C37.4583 12.6332 36.8657 11.2024 35.8108 10.1475C34.7559 9.09263 33.3252 8.5 31.8333 8.5Z" fill="#229F17" stroke="#229F17"/>
</svg>
