<svg width="32" height="33" viewBox="0 0 32 33" fill="none" xmlns="http://www.w3.org/2000/svg">
<path d="M7.399 8.95345H7.39941L24.1911 8.95345L24.1914 8.95345C24.6204 8.95289 25.0384 9.06897 25.4007 9.28527L15.7952 15.4244L6.18972 9.2852C6.55199 9.06881 6.97003 8.95274 7.399 8.95345ZM11.328 14.7121L11.328 14.7121L11.33 14.7133L15.6618 17.4467L15.7961 17.5314L15.9299 17.4459L26.462 10.7165C26.5029 10.886 26.5244 11.0633 26.5244 11.2461V22.6879C26.5244 23.2947 26.2796 23.8774 25.8424 24.3077C25.4051 24.7381 24.8112 24.9806 24.1911 24.9806H7.39941C6.77931 24.9806 6.18538 24.7381 5.74809 24.3077C5.31093 23.8774 5.06608 23.2947 5.06608 22.6879V11.2461V11.2459C5.06597 11.0678 5.08705 10.8907 5.12865 10.718L11.328 14.7121ZM24.1911 7.18213H7.39941C6.30667 7.18213 5.25789 7.60935 4.48401 8.37104C3.70999 9.13286 3.27441 10.167 3.27441 11.2461V22.6879C3.27441 23.7671 3.70999 24.8012 4.48401 25.563C5.25789 26.3247 6.30667 26.7519 7.39941 26.7519H24.1911C25.2838 26.7519 26.3326 26.3247 27.1065 25.563C27.8805 24.8012 28.3161 23.7671 28.3161 22.6879V11.2461C28.3161 10.167 27.8805 9.13286 27.1065 8.37104C26.3326 7.60935 25.2838 7.18213 24.1911 7.18213Z" fill="#229F17" stroke="#229F17" stroke-width="0.5"/>
</svg>
