<svg width="61" height="61" viewBox="0 0 61 61" fill="none" xmlns="http://www.w3.org/2000/svg">
<g clip-path="url(#clip0_310_1115)">
<path d="M0.98916 30.25C0.98916 46.5204 14.2295 59.7607 30.4999 59.7607C46.7703 59.7607 60.0107 46.5204 60.0107 30.25C60.0107 13.9796 46.7703 0.739221 30.4999 0.739221C14.2295 0.739221 0.98916 13.9796 0.98916 30.25ZM3.04865 30.25C3.04865 15.1153 15.3652 2.79871 30.4999 2.79871C45.6346 2.79871 57.9512 15.1153 57.9512 30.25C57.9512 45.3847 45.6346 57.7012 30.4999 57.7012C15.3652 57.7012 3.04865 45.3847 3.04865 30.25Z" fill="#229F17" stroke="#229F17" stroke-width="1.3"/>
<g clip-path="url(#clip1_310_1115)">
<path d="M34.4229 40.3716L36.8121 47.0764H38.5736L36.0514 40.049C35.517 40.1951 34.9727 40.3024 34.4229 40.3701M13.5 47.0778H21.4631L24.0403 38.9629H16.271C15.2728 41.6409 14.3488 44.3459 13.5 47.0749M23.9925 28.803L28.5902 24.9647C29.3422 22.9269 30.129 20.8862 30.9476 19.1478C31.354 20.0749 31.7416 21.0019 32.1479 21.9883C33.921 20.5319 35.0867 19.7394 35.146 19.7003L35.1692 19.6844C35.8971 19.2213 36.6937 18.8763 37.5294 18.6619C36.8382 17.1421 36.1237 15.633 35.3861 14.1351H26.4642C25.7208 15.5669 22.9469 21.2955 19.7015 29.1732H22.9845C23.3562 29.1878 23.7186 29.0547 23.9925 28.803ZM42.6593 35.1781C41.4751 37.0983 39.7183 38.5986 37.6365 39.4676L40.341 47.0749H48.21C46.6379 42.3023 44.9502 37.9954 43.368 33.9603C43.1467 34.3985 42.9109 34.7702 42.6593 35.1766M40.3265 22.3542C40.5536 22.3542 40.7647 22.4062 40.9571 22.4988C40.918 22.493 40.879 22.4843 40.8399 22.4843C40.6162 22.4839 40.4014 22.5724 40.2428 22.7302C40.0841 22.888 39.9946 23.1023 39.9939 23.3261C39.994 23.4368 40.0161 23.5463 40.0588 23.6485C40.1015 23.7507 40.1639 23.8434 40.2425 23.9213C40.3211 23.9993 40.4144 24.0609 40.5169 24.1027C40.6194 24.1445 40.7292 24.1656 40.8399 24.1649C40.9503 24.1651 41.0596 24.1435 41.1616 24.1015C41.2636 24.0594 41.3563 23.9977 41.4345 23.9198C41.5127 23.8419 41.5747 23.7494 41.6171 23.6475C41.6595 23.5456 41.6814 23.4364 41.6816 23.3261C41.6816 23.2971 41.6787 23.2725 41.6758 23.248C41.7492 23.4239 41.7871 23.6127 41.7872 23.8033C41.7872 24.6031 41.1335 25.2539 40.3265 25.2539C39.9406 25.2547 39.5701 25.1024 39.2963 24.8305C39.0225 24.5586 38.8677 24.1892 38.8658 23.8033C38.8658 22.9992 39.5209 22.3542 40.3265 22.3542ZM32.1696 38.7214C34.0932 38.7214 38.6835 38.234 41.1668 34.2438C43.6543 30.2521 44.5221 23.9205 44.5221 23.9205L47.2439 22.6304C47.4146 22.5436 47.3697 22.25 47.1615 22.25H44.227C43.7671 21.5341 42.1734 20.0084 39.8275 20.0084C38.4348 20.0084 37.2156 20.4017 36.1222 21.1133C36.1222 21.1133 34.5299 22.198 32.213 24.1909L25.1206 30.0916C24.5739 30.5486 23.9058 30.8437 22.9802 30.8437H14.0583C13.8066 30.8437 13.8919 31.0563 13.9324 31.1777C14.5615 33.0955 16.2406 34.8064 19.1722 34.8064L17.078 36.9627C16.9956 37.0452 16.9956 37.2896 17.2038 37.2896H25.1655C30.9186 37.2896 34.4562 34.7717 36.7817 31.2819C36.9813 30.9825 37.1679 30.6643 37.3458 30.3563C37.4325 30.3982 37.4427 30.4821 37.4007 30.5631C36.8135 31.9804 35.3471 34.8512 32.6672 36.5592C31.7416 37.0987 31.4494 37.2665 30.1507 37.764C30.061 37.803 30.0249 37.9447 30.0668 38.0677L33.289 47.0764H35.0477L32.0944 38.7214H32.174H32.1696Z" fill="#229F17"/>
</g>
</g>
<defs>
<clipPath id="clip0_310_1115">
<rect width="60" height="60" fill="white" transform="translate(0.5 0.25)"/>
</clipPath>
<clipPath id="clip1_310_1115">
<rect width="34.71" height="34.71" fill="white" transform="translate(13.5 13.25)"/>
</clipPath>
</defs>
</svg>
