<svg width="61" height="61" viewBox="0 0 61 61" fill="none" xmlns="http://www.w3.org/2000/svg">
<g clip-path="url(#clip0_310_1133)">
<path d="M0.98916 30.25C0.98916 46.5204 14.2295 59.7607 30.4999 59.7607C46.7703 59.7607 60.0107 46.5204 60.0107 30.25C60.0107 13.9796 46.7703 0.739221 30.4999 0.739221C14.2295 0.739221 0.98916 13.9796 0.98916 30.25ZM3.04865 30.25C3.04865 15.1153 15.3652 2.79871 30.4999 2.79871C45.6346 2.79871 57.9512 15.1153 57.9512 30.25C57.9512 45.3847 45.6346 57.7012 30.4999 57.7012C15.3652 57.7012 3.04865 45.3847 3.04865 30.25Z" fill="#229F17" stroke="#229F17" stroke-width="1.3"/>
<g clip-path="url(#clip1_310_1133)">
<path d="M30.3551 15.4194C31.7934 15.4194 33.1729 15.9908 34.19 17.0079C35.2071 18.025 35.7785 19.4044 35.7785 20.8428V21.9275H24.9316V20.8428C24.9316 19.4044 25.503 18.025 26.5201 17.0079C27.5372 15.9908 28.9167 15.4194 30.3551 15.4194ZM37.9479 21.9275V20.8428C37.9479 18.8291 37.1479 16.8978 35.724 15.4739C34.3001 14.05 32.3688 13.25 30.3551 13.25C28.3413 13.25 26.4101 14.05 24.9861 15.4739C23.5622 16.8978 22.7622 18.8291 22.7622 20.8428V21.9275H15.1694V43.6213C15.1694 44.772 15.6266 45.8755 16.4402 46.6892C17.2539 47.5029 18.3575 47.96 19.5082 47.96H41.2019C42.3526 47.96 43.4562 47.5029 44.2699 46.6892C45.0836 45.8755 45.5407 44.772 45.5407 43.6213V21.9275H37.9479ZM17.3388 24.0969H43.3713V43.6213C43.3713 44.1966 43.1427 44.7484 42.7359 45.1552C42.3291 45.5621 41.7773 45.7906 41.2019 45.7906H19.5082C18.9328 45.7906 18.381 45.5621 17.9742 45.1552C17.5674 44.7484 17.3388 44.1966 17.3388 43.6213V24.0969Z" fill="#229F17"/>
</g>
</g>
<defs>
<clipPath id="clip0_310_1133">
<rect width="60" height="60" fill="white" transform="translate(0.5 0.25)"/>
</clipPath>
<clipPath id="clip1_310_1133">
<rect width="34.71" height="34.71" fill="white" transform="translate(13 13.25)"/>
</clipPath>
</defs>
</svg>
