<svg width="60" height="61" viewBox="0 0 60 61" fill="none" xmlns="http://www.w3.org/2000/svg">
<g clip-path="url(#clip0_310_1125)">
<path d="M0.63916 30.25C0.63916 46.4375 13.8124 59.6107 29.9999 59.6107C46.1875 59.6107 59.3607 46.4375 59.3607 30.25C59.3607 14.0624 46.1875 0.889221 29.9999 0.889221C13.8124 0.889221 0.63916 14.0624 0.63916 30.25ZM2.39865 30.25C2.39865 15.0325 14.7824 2.64871 29.9999 2.64871C45.2174 2.64871 57.6012 15.0325 57.6012 30.25C57.6012 45.4675 45.2174 57.8512 29.9999 57.8512C14.7824 57.8512 2.39865 45.4675 2.39865 30.25Z" fill="#229F17" stroke="#229F17"/>
<path d="M26.1836 33.1426V43.25H24.4434V18.043H30.5254C33.1152 18.043 35.0957 18.6465 36.4668 19.8535C37.8379 21.0488 38.5234 22.8008 38.5234 25.1094C38.5234 27.4531 37.7559 29.3809 36.2207 30.8926C34.6973 32.3926 32.5586 33.1426 29.8047 33.1426H26.1836ZM26.1836 19.6426V31.543H29.7695C32.043 31.543 33.7715 31.0039 34.9551 29.9258C36.1387 28.8359 36.7305 27.3008 36.7305 25.3203C36.7305 21.5352 34.5566 19.6426 30.209 19.6426H26.1836Z" fill="#229F17"/>
</g>
<defs>
<clipPath id="clip0_310_1125">
<rect width="60" height="60" fill="white" transform="translate(0 0.25)"/>
</clipPath>
</defs>
</svg>
