<svg width="60" height="61" viewBox="0 0 60 61" fill="none" xmlns="http://www.w3.org/2000/svg">
<g clip-path="url(#clip0_310_1105)">
<path d="M0.48916 30.25C0.48916 46.5204 13.7295 59.7607 29.9999 59.7607C46.2703 59.7607 59.5107 46.5204 59.5107 30.25C59.5107 13.9796 46.2703 0.739221 29.9999 0.739221C13.7295 0.739221 0.48916 13.9796 0.48916 30.25ZM2.54865 30.25C2.54865 15.1153 14.8652 2.79871 29.9999 2.79871C45.1346 2.79871 57.4512 15.1153 57.4512 30.25C57.4512 45.3847 45.1346 57.7012 29.9999 57.7012C14.8652 57.7012 2.54865 45.3847 2.54865 30.25Z" fill="#229F17" stroke="#229F17" stroke-width="1.3"/>
<path d="M23.4961 42.3535V40.3672C25.3008 41.5156 27.1289 42.0898 28.9805 42.0898C30.9492 42.0898 32.4434 41.6855 33.4629 40.877C34.4824 40.0566 34.9922 38.9141 34.9922 37.4492C34.9922 36.1602 34.6465 35.1348 33.9551 34.373C33.2754 33.5996 31.793 32.5508 29.5078 31.2266C26.9531 29.7383 25.3359 28.4961 24.6562 27.5C23.9766 26.4922 23.6367 25.332 23.6367 24.0195C23.6367 22.2383 24.3281 20.7266 25.7109 19.4844C27.0938 18.2422 28.9395 17.6211 31.248 17.6211C32.748 17.6211 34.248 17.873 35.748 18.377V20.2051C34.2715 19.5371 32.6953 19.2031 31.0195 19.2031C29.3086 19.2031 27.9492 19.6367 26.9414 20.5039C25.9453 21.3711 25.4473 22.4727 25.4473 23.8086C25.4473 25.0977 25.7871 26.123 26.4668 26.8848C27.1582 27.6465 28.6406 28.6836 30.9141 29.9961C33.2695 31.332 34.834 32.5215 35.6074 33.5645C36.3926 34.5957 36.7852 35.7852 36.7852 37.1328C36.7852 39.0664 36.1113 40.6426 34.7637 41.8613C33.4277 43.0801 31.5352 43.6895 29.0859 43.6895C28.2188 43.6895 27.2168 43.5547 26.0801 43.2852C24.9551 43.0156 24.0938 42.7051 23.4961 42.3535Z" fill="#229F17"/>
</g>
<defs>
<clipPath id="clip0_310_1105">
<rect width="60" height="60" fill="white" transform="translate(0 0.25)"/>
</clipPath>
</defs>
</svg>
