<svg width="12" height="14" viewBox="0 0 12 14" fill="none" xmlns="http://www.w3.org/2000/svg">
<g clip-path="url(#clip0_482_1384)">
<path fill-rule="evenodd" clip-rule="evenodd" d="M12 6.5887C12 9.8794 9.31371 12.547 6 12.547C2.68629 12.547 0 9.8794 0 6.5887C0 3.29801 2.68629 0.630371 6 0.630371C9.31371 0.630371 12 3.29801 12 6.5887ZM5.9998 4.68202C6.92763 4.68202 7.67978 3.93508 7.67978 3.01369C7.67978 2.09229 6.92763 1.34535 5.9998 1.34535C5.07196 1.34535 4.31982 2.09229 4.31982 3.01369C4.31982 3.93508 5.07196 4.68202 5.9998 4.68202ZM2.64784 7.06535C3.57568 7.06535 4.32782 6.31841 4.32782 5.39702C4.32782 4.47562 3.57568 3.72868 2.64784 3.72868C1.72 3.72868 0.967862 4.47562 0.967862 5.39702C0.967862 6.31841 1.72 7.06535 2.64784 7.06535ZM11.032 5.39702C11.032 6.31841 10.2799 7.06535 9.35203 7.06535C8.42419 7.06535 7.67205 6.31841 7.67205 5.39702C7.67205 4.47562 8.42419 3.72868 9.35203 3.72868C10.2799 3.72868 11.032 4.47562 11.032 5.39702ZM8.06409 11.0139C8.99192 11.0139 9.74407 10.2669 9.74407 9.34555C9.74407 8.42415 8.99192 7.67721 8.06409 7.67721C7.13625 7.67721 6.38406 8.42415 6.38406 9.34555C6.38406 10.2669 7.13625 11.0139 8.06409 11.0139ZM5.59989 9.34555C5.59989 10.2669 4.84775 11.0139 3.91991 11.0139C2.99207 11.0139 2.23988 10.2669 2.23988 9.34555C2.23988 8.42415 2.99207 7.67721 3.91991 7.67721C4.84775 7.67721 5.59989 8.42415 5.59989 9.34555ZM5.99196 6.96205C6.20845 6.96205 6.38395 6.78777 6.38395 6.57278C6.38395 6.35779 6.20845 6.18349 5.99196 6.18349C5.77546 6.18349 5.59996 6.35779 5.59996 6.57278C5.59996 6.78777 5.77546 6.96205 5.99196 6.96205Z" fill="white"/>
</g>
<defs>
<clipPath id="clip0_482_1384">
<rect width="12" height="13" fill="white" transform="translate(0 0.421875)"/>
</clipPath>
</defs>
</svg>
