<svg width="16" height="17" viewBox="0 0 16 17" fill="none" xmlns="http://www.w3.org/2000/svg">
<g clip-path="url(#clip0_274_1043)">
<path fill-rule="evenodd" clip-rule="evenodd" d="M15.4199 8.28003C15.4199 12.4222 12.0621 15.78 7.91992 15.78C3.77779 15.78 0.419922 12.4222 0.419922 8.28003C0.419922 4.13789 3.77779 0.780029 7.91992 0.780029C12.0621 0.780029 15.4199 4.13789 15.4199 8.28003ZM7.9198 5.88C9.0796 5.88 10.0198 4.9398 10.0198 3.78C10.0198 2.6202 9.0796 1.67999 7.9198 1.67999C6.76 1.67999 5.81982 2.6202 5.81982 3.78C5.81982 4.9398 6.76 5.88 7.9198 5.88ZM3.72986 8.88C4.88966 8.88 5.82983 7.9398 5.82983 6.78C5.82983 5.6202 4.88966 4.67999 3.72986 4.67999C2.57006 4.67999 1.62988 5.6202 1.62988 6.78C1.62988 7.9398 2.57006 8.88 3.72986 8.88ZM14.21 6.78C14.21 7.9398 13.2698 8.88 12.11 8.88C10.9502 8.88 10.01 7.9398 10.01 6.78C10.01 5.6202 10.9502 4.67999 12.11 4.67999C13.2698 4.67999 14.21 5.6202 14.21 6.78ZM10.4999 13.85C11.6597 13.85 12.5999 12.9098 12.5999 11.75C12.5999 10.5902 11.6597 9.65002 10.4999 9.65002C9.34014 9.65002 8.3999 10.5902 8.3999 11.75C8.3999 12.9098 9.34014 13.85 10.4999 13.85ZM7.41998 11.75C7.41998 12.9098 6.47981 13.85 5.32001 13.85C4.16021 13.85 3.21997 12.9098 3.21997 11.75C3.21997 10.5902 4.16021 9.65002 5.32001 9.65002C6.47981 9.65002 7.41998 10.5902 7.41998 11.75ZM7.90991 8.75003C8.18053 8.75003 8.3999 8.53066 8.3999 8.26004C8.3999 7.98942 8.18053 7.77002 7.90991 7.77002C7.63929 7.77002 7.41992 7.98942 7.41992 8.26004C7.41992 8.53066 7.63929 8.75003 7.90991 8.75003Z" fill="white"/>
</g>
<defs>
<clipPath id="clip0_274_1043">
<rect width="15" height="16" fill="white" transform="translate(0.419922 0.5)"/>
</clipPath>
</defs>
</svg>
