<svg width="31" height="32" viewBox="0 0 31 32" fill="none" xmlns="http://www.w3.org/2000/svg">
<path d="M15.2959 24.1308L15.4997 24.4187L15.7038 24.131L21.7058 15.67C22.8678 14.2168 23.5005 12.4113 23.4999 10.5505C23.513 8.41365 22.6788 6.35866 21.18 4.83551C19.681 3.31216 17.6394 2.44496 15.5024 2.42384L15.5024 2.42376L15.4961 2.42386C13.9548 2.44686 12.4517 2.90729 11.1619 3.75153C9.87216 4.59577 8.84878 5.78907 8.21097 7.19245C7.57317 8.59583 7.3472 10.1515 7.55937 11.6784C7.77105 13.2016 8.41011 14.6336 9.40238 15.8083L15.2959 24.1308ZM9.93738 10.5486L9.93737 10.5473C9.92252 9.05559 10.5003 7.61899 11.5437 6.55291C12.5865 5.48752 14.0093 4.87922 15.4999 4.86135C16.9905 4.87922 18.4132 5.48752 19.456 6.55291C20.4995 7.61899 21.0772 9.05559 21.0624 10.5473L21.0624 10.5485C21.0558 11.8557 20.6074 13.1223 19.7901 14.1425L19.7856 14.1482L19.7814 14.1541L15.5005 20.1824L11.3351 14.2806L11.3283 14.271L11.3206 14.2621C10.4338 13.2274 9.94359 11.9113 9.93738 10.5486Z" fill="#229F17" stroke="#229F17" stroke-width="0.5"/>
<path d="M15.5 11.6426C16.7081 11.6426 17.6875 10.6632 17.6875 9.45508C17.6875 8.24696 16.7081 7.26758 15.5 7.26758C14.2919 7.26758 13.3125 8.24696 13.3125 9.45508C13.3125 10.6632 14.2919 11.6426 15.5 11.6426Z" fill="#229F17" stroke="#229F17" stroke-width="0.5"/>
<path d="M25.1875 12.1113H24.9375V12.3613V14.2988V14.5488H25.1875H26.875V27.6113H4.125V14.5488H5.8125H6.0625V14.2988V12.3613V12.1113H5.8125H3.875C3.29484 12.1113 2.73844 12.3418 2.3282 12.752C1.91797 13.1623 1.6875 13.7187 1.6875 14.2988V27.8613C1.6875 28.4415 1.91797 28.9979 2.3282 29.4081C2.73844 29.8184 3.29484 30.0488 3.875 30.0488H27.125C27.7052 30.0488 28.2616 29.8184 28.6718 29.4081C29.082 28.9979 29.3125 28.4415 29.3125 27.8613V14.2988C29.3125 13.7187 29.082 13.1623 28.6718 12.752C28.2616 12.3418 27.7052 12.1113 27.125 12.1113H25.1875Z" fill="#229F17" stroke="#229F17" stroke-width="0.5"/>
</svg>
