<svg width="16" height="19" viewBox="0 0 16 19" fill="none" xmlns="http://www.w3.org/2000/svg">
<path d="M7.22621 2.19922C5.71477 2.19922 4.26525 2.80476 3.1965 3.88262C2.12776 4.96049 1.52734 6.42239 1.52734 7.94672V7.94672V8.36556C1.75807 11.5147 4.34986 14.0471 7.22621 17.3242C10.2295 13.9036 12.9251 11.313 12.9251 7.94672C12.9251 6.42239 12.3247 4.96049 11.2559 3.88262C10.1872 2.80476 8.73764 2.19922 7.22621 2.19922ZM7.22621 5.18544C7.76864 5.18544 8.29888 5.34771 8.74985 5.65172C9.20081 5.95573 9.55223 6.38782 9.75963 6.89331C9.96703 7.39881 10.0211 7.95499 9.915 8.49148C9.8089 9.02798 9.54739 9.52067 9.16356 9.90723C8.77973 10.2938 8.29084 10.5568 7.75874 10.6631C7.22663 10.7694 6.67524 10.714 6.17431 10.5042C5.67339 10.2943 5.24545 9.93925 4.94465 9.48401C4.64384 9.02878 4.48369 8.49378 4.48445 7.94672C4.48547 7.21402 4.77478 6.51169 5.28885 5.99396C5.80292 5.47623 6.49971 5.18544 7.22621 5.18544Z" stroke="#229F17" stroke-linecap="round" stroke-linejoin="round"/>
</svg>
