<svg width="41" height="41" viewBox="0 0 41 41" fill="none" xmlns="http://www.w3.org/2000/svg">
<path d="M20.4996 31.1823L20.2958 30.8945L12.4992 19.8845C11.1954 18.342 10.3557 16.4613 10.0777 14.4606C9.79921 12.4564 10.0958 10.4143 10.9331 8.5721C11.7703 6.72993 13.1137 5.16353 14.8067 4.05533C16.4998 2.94712 18.4728 2.34273 20.4961 2.31253L20.5023 2.31244L20.5023 2.31251C23.3074 2.34023 25.9872 3.47852 27.9548 5.47806C29.9221 7.47737 31.017 10.1748 30.9998 12.9796C30.9998 12.98 30.9998 12.9803 30.9998 12.9806L30.7498 12.9791C30.7509 15.3685 29.9374 17.6869 28.4436 19.5519L20.4996 31.1823ZM20.4996 31.1823L20.7037 30.8946L28.6433 19.7024L20.4996 31.1823ZM13.0623 12.9779L13.0623 12.9766C13.0425 10.9823 13.8148 9.06173 15.2099 7.63649C16.6042 6.21194 18.5066 5.39866 20.4998 5.37502C22.493 5.39866 24.3954 6.21194 25.7898 7.63649C27.1848 9.06173 27.9572 10.9823 27.9373 12.9766L27.9373 12.9778C27.9285 14.7249 27.3292 16.4177 26.2369 17.7812L26.2324 17.7868L26.2282 17.7928L20.5004 25.8586L14.9256 17.9599L14.9188 17.9503L14.9112 17.9414C13.7259 16.5584 13.0706 14.7993 13.0623 12.9779Z" fill="#229F17" stroke="#229F17" stroke-width="0.5"/>
<path d="M33.3125 15.125H33.0625V15.375V17.9375V18.1875H33.3125H35.625V35.625H5.375V18.1875H7.6875H7.9375V17.9375V15.375V15.125H7.6875H5.125C4.37908 15.125 3.66371 15.4213 3.13626 15.9488C2.60882 16.4762 2.3125 17.1916 2.3125 17.9375V35.875C2.3125 36.6209 2.60882 37.3363 3.13626 37.8637C3.66371 38.3912 4.37908 38.6875 5.125 38.6875H35.875C36.6209 38.6875 37.3363 38.3912 37.8637 37.8637C38.3912 37.3363 38.6875 36.6209 38.6875 35.875V17.9375C38.6875 17.1916 38.3912 16.4762 37.8637 15.9488C37.3363 15.4213 36.6209 15.125 35.875 15.125H33.3125Z" fill="#229F17" stroke="#229F17" stroke-width="0.5"/>
<path d="M20.5 14.3438C22.0533 14.3438 23.3125 13.0846 23.3125 11.5312C23.3125 9.97795 22.0533 8.71875 20.5 8.71875C18.9467 8.71875 17.6875 9.97795 17.6875 11.5312C17.6875 13.0846 18.9467 14.3438 20.5 14.3438Z" fill="#229F17" stroke="#229F17" stroke-width="0.5"/>
</svg>
