<svg width="32" height="21" viewBox="0 0 32 21" fill="none" xmlns="http://www.w3.org/2000/svg">
<g clip-path="url(#clip0_103_1022)">
<path fill-rule="evenodd" clip-rule="evenodd" d="M31.2667 2.43075C31.488 1.70275 31.2667 1.16675 30.2067 1.16675H26.7067C25.816 1.16675 25.4053 1.62941 25.1827 2.14008C25.1827 2.14008 23.4027 6.40141 20.8813 9.16941C20.0653 9.97208 19.6947 10.2267 19.2493 10.2267C19.0267 10.2267 18.692 9.97208 18.692 9.24275V2.43075C18.692 1.55608 18.4467 1.16675 17.7053 1.16675H12.2013C11.6453 1.16675 11.3107 1.57208 11.3107 1.95741C11.3107 2.78541 12.572 2.97741 12.7013 5.30808V10.3721C12.7013 11.4827 12.4973 11.6841 12.052 11.6841C10.8653 11.6841 7.97867 7.40275 6.26533 2.50408C5.93333 1.55075 5.59733 1.16675 4.70267 1.16675H1.2C0.2 1.16675 0 1.62941 0 2.14008C0 3.04941 1.18667 7.56675 5.52667 13.5414C8.42 17.6214 12.4933 19.8334 16.204 19.8334C18.4293 19.8334 18.704 19.3427 18.704 18.4961V15.4121C18.704 14.4294 18.9147 14.2334 19.62 14.2334C20.14 14.2334 21.0293 14.4894 23.1067 16.4561C25.48 18.7881 25.8707 19.8334 27.2067 19.8334H30.7067C31.7067 19.8334 32.208 19.3427 31.92 18.3721C31.6027 17.4067 30.4693 16.0054 28.9667 14.3427C28.1507 13.3961 26.9267 12.3761 26.5547 11.8654C26.036 11.2107 26.184 10.9187 26.5547 10.3361C26.5547 10.3361 30.8213 4.43475 31.2653 2.43075H31.2667Z" fill="#229F17"/>
</g>
<defs>
<clipPath id="clip0_103_1022">
<rect width="32" height="20" fill="white" transform="translate(0 0.5)"/>
</clipPath>
</defs>
</svg>
